<?xml version="1.0" encoding="UTF-8" standalone="no"?>
<!-- Generator: Adobe Illustrator 16.0.0, SVG Export Plug-In . SVG Version: 6.00 Build 0)  -->

<svg
   xmlns:dc="http://purl.org/dc/elements/1.1/"
   xmlns:cc="http://creativecommons.org/ns#"
   xmlns:rdf="http://www.w3.org/1999/02/22-rdf-syntax-ns#"
   xmlns:svg="http://www.w3.org/2000/svg"
   xmlns="http://www.w3.org/2000/svg"
   xmlns:sodipodi="http://sodipodi.sourceforge.net/DTD/sodipodi-0.dtd"
   xmlns:inkscape="http://www.inkscape.org/namespaces/inkscape"
   version="1.1"
   id="Capa_1"
   x="0px"
   y="0px"
   width="408px"
   height="408px"
   viewBox="0 0 408 408"
   style="enable-background:new 0 0 408 408;"
   xml:space="preserve"
   sodipodi:docname="dots.svg"
   inkscape:version="0.92.5 (2060ec1f9f, 2020-04-08)"><metadata
   id="metadata42"><rdf:RDF><cc:Work
       rdf:about=""><dc:format>image/svg+xml</dc:format><dc:type
         rdf:resource="http://purl.org/dc/dcmitype/StillImage" /></cc:Work></rdf:RDF></metadata><defs
   id="defs40" /><sodipodi:namedview
   pagecolor="#ffffff"
   bordercolor="#666666"
   borderopacity="1"
   objecttolerance="10"
   gridtolerance="10"
   guidetolerance="10"
   inkscape:pageopacity="0"
   inkscape:pageshadow="2"
   inkscape:window-width="1366"
   inkscape:window-height="704"
   id="namedview38"
   showgrid="false"
   inkscape:zoom="0.57843137"
   inkscape:cx="204"
   inkscape:cy="204"
   inkscape:window-x="0"
   inkscape:window-y="339"
   inkscape:window-maximized="1"
   inkscape:current-layer="more-horiz" />
<g
   id="g5">
	<g
   id="more-horiz">
		<path
   d="M51,153c-28.05,0-51,22.95-51,51s22.95,51,51,51s51-22.95,51-51S79.05,153,51,153z M357,153c-28.05,0-51,22.95-51,51    s22.95,51,51,51s51-22.95,51-51S385.05,153,357,153z M204,153c-28.05,0-51,22.95-51,51s22.95,51,51,51s51-22.95,51-51    S232.05,153,204,153z"
   id="path2"
   style="fill:#909090;fill-opacity:1" />
	</g>
</g>
<g
   id="g7">
</g>
<g
   id="g9">
</g>
<g
   id="g11">
</g>
<g
   id="g13">
</g>
<g
   id="g15">
</g>
<g
   id="g17">
</g>
<g
   id="g19">
</g>
<g
   id="g21">
</g>
<g
   id="g23">
</g>
<g
   id="g25">
</g>
<g
   id="g27">
</g>
<g
   id="g29">
</g>
<g
   id="g31">
</g>
<g
   id="g33">
</g>
<g
   id="g35">
</g>
</svg>