<?xml version="1.0" encoding="UTF-8" standalone="no"?>
<!-- Generator: Adobe Illustrator 19.0.0, SVG Export Plug-In . SVG Version: 6.00 Build 0)  -->

<svg
   xmlns:dc="http://purl.org/dc/elements/1.1/"
   xmlns:cc="http://creativecommons.org/ns#"
   xmlns:rdf="http://www.w3.org/1999/02/22-rdf-syntax-ns#"
   xmlns:svg="http://www.w3.org/2000/svg"
   xmlns="http://www.w3.org/2000/svg"
   xmlns:sodipodi="http://sodipodi.sourceforge.net/DTD/sodipodi-0.dtd"
   xmlns:inkscape="http://www.inkscape.org/namespaces/inkscape"
   version="1.1"
   id="Capa_1"
   x="0px"
   y="0px"
   viewBox="0 0 511.999 511.999"
   style="enable-background:new 0 0 511.999 511.999;"
   xml:space="preserve"
   sodipodi:docname="thumbs.svg"
   inkscape:version="0.92.5 (2060ec1f9f, 2020-04-08)"><metadata
   id="metadata49"><rdf:RDF><cc:Work
       rdf:about=""><dc:format>image/svg+xml</dc:format><dc:type
         rdf:resource="http://purl.org/dc/dcmitype/StillImage" /></cc:Work></rdf:RDF></metadata><defs
   id="defs47" /><sodipodi:namedview
   pagecolor="#ffffff"
   bordercolor="#666666"
   borderopacity="1"
   objecttolerance="10"
   gridtolerance="10"
   guidetolerance="10"
   inkscape:pageopacity="0"
   inkscape:pageshadow="2"
   inkscape:window-width="1366"
   inkscape:window-height="704"
   id="namedview45"
   showgrid="false"
   inkscape:zoom="0.46093841"
   inkscape:cx="255.9995"
   inkscape:cy="255.9995"
   inkscape:window-x="0"
   inkscape:window-y="339"
   inkscape:window-maximized="1"
   inkscape:current-layer="g10" />
<g
   id="g6"
   style="fill:#909090;fill-opacity:1">
	<g
   id="g4"
   style="fill:#909090;fill-opacity:1">
		<path
   d="M0,146.588v353.638h120.668V146.588H0z M75.334,213.655H45.661v-29.673h29.673V213.655z"
   id="path2"
   style="fill:#909090;fill-opacity:1" />
	</g>
</g>
<g
   id="g12">
	<g
   id="g10">
		<path
   d="M500.192,303.075c0-12.543-4.328-24.087-11.553-33.244c14.096-9.706,23.36-25.948,23.36-44.32    c0-29.655-24.126-53.782-53.782-53.782H285.873c-2.603,0-4.922-1.556-5.91-3.963c-1-2.439-0.379-5.288,1.547-7.088l70.067-65.529    c10.873-10.169,16.997-23.907,17.244-38.685c0.246-14.696-5.35-28.559-15.764-39.064c-20.933-22.183-56.005-23.297-78.317-2.43    L150.668,131.293v344.74l55.829,20.936c26.571,9.964,54.433,15.017,82.812,15.017h133.487c29.656,0,53.782-24.127,53.782-53.782    c0-12.54-4.313-24.09-11.535-33.246c14.088-9.707,23.342-25.953,23.342-44.317c0-12.543-4.328-24.087-11.553-33.245    C490.928,337.688,500.192,321.445,500.192,303.075z"
   id="path8"
   style="fill:#909090;fill-opacity:1" />
	</g>
</g>
<g
   id="g14">
</g>
<g
   id="g16">
</g>
<g
   id="g18">
</g>
<g
   id="g20">
</g>
<g
   id="g22">
</g>
<g
   id="g24">
</g>
<g
   id="g26">
</g>
<g
   id="g28">
</g>
<g
   id="g30">
</g>
<g
   id="g32">
</g>
<g
   id="g34">
</g>
<g
   id="g36">
</g>
<g
   id="g38">
</g>
<g
   id="g40">
</g>
<g
   id="g42">
</g>
</svg>